<?xml version="1.0" encoding="utf-8"?>
<!-- Generator: Adobe Illustrator 23.0.1, SVG Export Plug-In . SVG Version: 6.00 Build 0)  -->
<svg version="1.1" id="Layer_1" xmlns="http://www.w3.org/2000/svg" xmlns:xlink="http://www.w3.org/1999/xlink" x="0px" y="0px"
	 viewBox="0 0 1000 600" xml:space="preserve">
<g class="st1">
	<g class="st5">
		<path fill="#333333" d="M-60.98-1615.19v3.19h-12.41v-3.86c0-10.57-4.03-16.77-13.42-16.77s-13.42,6.2-13.42,16.61
			c0,26.33,39.42,28.85,39.42,61.89c0,17.78-8.55,29.36-26.5,29.36c-17.95,0-26.34-11.57-26.34-29.36v-6.71h12.24v7.38
			c0,10.57,4.36,16.77,13.75,16.77s13.75-6.21,13.75-16.77c0-26.17-39.25-28.68-39.25-61.73c0-18.11,8.39-29.35,26-29.35
			C-69.37-1644.55-60.98-1632.97-60.98-1615.19z"/>
		<path fill="#333333" d="M56.77-1643.37c18.45,0,26.33,10.9,26.33,28.68v14.09c0,18.62-8.72,28.35-27.34,28.35H44.19v46.3H31.1
			v-117.41H56.77z M55.76-1583.99c9.73,0,14.43-4.53,14.43-15.77v-15.6c0-10.74-3.86-16.1-13.42-16.1H44.19v47.47H55.76z"/>
		<path fill="#333333" d="M173.34-1615.02c0-17.95,8.89-29.52,26.84-29.52c18.12,0,27.01,11.57,27.01,29.52v60.72
			c0,17.78-8.89,29.52-27.01,29.52c-17.95,0-26.84-11.74-26.84-29.52V-1615.02z M186.26-1553.63c0,10.73,4.53,16.94,13.92,16.94
			c9.56,0,13.92-6.21,13.92-16.94v-62.06c0-10.57-4.36-16.94-13.92-16.94c-9.39,0-13.92,6.37-13.92,16.94V-1553.63z"/>
		<path fill="#333333" d="M346.27-1643.37c18.45,0,26.17,9.39,26.17,26.84v9.56c0,12.92-4.53,20.97-14.59,24.15
			c10.74,3.19,14.76,11.91,14.76,24.49v18.28c0,5.2,0.17,10.07,2.35,14.09h-13.25c-1.51-3.36-2.18-6.37-2.18-14.26v-18.45
			c0-13.25-6.21-17.44-17.11-17.44h-9.23v50.15h-13.08v-117.41H346.27z M342.92-1588.02c10.4,0,16.61-3.36,16.61-16.1v-11.24
			c0-10.57-3.86-16.1-13.59-16.1h-12.75v43.44H342.92z"/>
		<path fill="#333333" d="M483.81-1525.96v-105.51h-21.64v-11.91h56.36v11.91H496.9v105.51H483.81z"/>
		<path fill="#333333" d="M651.38-1526.12H638.8l-19.46-93.43v93.6h-11.41v-117.41h18.28l19.29,93.76l18.62-93.76h18.28v117.41H670
			v-94.44L651.38-1526.12z"/>
		<path fill="#1bb76e" d="M823.98-1549.61v23.65h-12.75v-23.65h-37.91v-11.91l36.4-81.85h14.26v81.85h9.39v11.91H823.98z
			 M785.4-1561.52h25.83v-57.36L785.4-1561.52z"/>
		<path fill="#333333" d="M941.05-1525.96v-105.51h-21.64v-11.91h56.36v11.91h-21.64v105.51H941.05z"/>
		<path fill="#333333" d="M1107.11-1591.37v11.74h-28.68v41.77h35.22v11.91h-48.31v-117.41h48.31v11.91h-35.22v40.09H1107.11z"/>
	</g>
	<g class="st5">
		<g>
			<polygon fill="#333333" points="314.51,-1797.64 314.51,-1807.43 395.87,-1807.43 314.51,-1888.79 314.51,-1905.07 347.05,-1905.07
				460.97,-1791.15 460.97,-1774.88 314.51,-1774.88 			"/>
			<polygon fill="#1bb76e" points="363.33,-1905.07 460.97,-1905.07 460.97,-1872.52 395.87,-1872.52 			"/>
			<polygon fill="#333333" points="473.94,-1888.79 473.94,-1900.23 473.94,-1905.07 506.49,-1905.07 620.4,-1791.15 620.4,-1774.88
				587.85,-1774.88 			"/>
			<polygon fill="#333333" points="473.94,-1843.28 473.94,-1872.52 506.49,-1839.97 506.49,-1774.88 473.94,-1774.88 			"/>
			<polygon fill="#1bb76e" points="539.03,-1888.79 539.03,-1905.07 571.58,-1905.07 685.49,-1791.15 685.49,-1774.88
				652.95,-1774.88 			"/>
		</g>
		<path fill="#333333" d="M687.37-1703.21H312.63c-39.55,0-71.61-32.06-71.61-71.61v-130.31c0-39.55,32.06-71.61,71.61-71.61h374.74
			c39.55,0,71.61,32.06,71.61,71.61v130.31C758.98-1735.27,726.92-1703.21,687.37-1703.21z M320.39-1710.97h359.22
			c39.55,0,71.61-32.06,71.61-71.61v-114.79c0-39.55-32.06-71.61-71.61-71.61H320.39c-39.55,0-71.61,32.06-71.61,71.61v114.79
			C248.78-1743.03,280.84-1710.97,320.39-1710.97z"/>
	</g>
</g>
<g>
	<g>
		<path fill="#333333" d="M111.23,490.42v2.06h-7.85v-2.49c0-6.83-2.54-10.84-8.48-10.84c-5.94,0-8.48,4.01-8.48,10.73
			c0,17.01,24.92,18.64,24.92,39.99c0,11.49-5.41,18.97-16.75,18.97c-11.34,0-16.65-7.48-16.65-18.97v-4.33h7.74v4.77
			c0,6.83,2.76,10.84,8.69,10.84s8.69-4.01,8.69-10.84c0-16.91-24.81-18.53-24.81-39.88c0-11.7,5.3-18.96,16.43-18.96
			C105.92,471.46,111.23,478.94,111.23,490.42z"/>
		<path fill="#333333" d="M185.65,472.22c11.66,0,16.65,7.04,16.65,18.53v9.1c0,12.03-5.51,18.31-17.28,18.31h-7.32v29.91h-8.27v-75.86
			H185.65z M185.02,510.58c6.15,0,9.12-2.93,9.12-10.19v-10.08c0-6.94-2.44-10.4-8.48-10.4h-7.95v30.67H185.02z"/>
		<path fill="#333333" d="M259.34,490.53c0-11.6,5.62-19.07,16.96-19.07c11.45,0,17.07,7.48,17.07,19.07v39.23
			c0,11.49-5.62,19.07-17.07,19.07c-11.34,0-16.96-7.59-16.96-19.07V490.53z M267.5,530.2c0,6.94,2.86,10.95,8.8,10.95
			c6.04,0,8.8-4.01,8.8-10.95v-40.1c0-6.83-2.76-10.94-8.8-10.94c-5.94,0-8.8,4.12-8.8,10.94V530.2z"/>
		<path fill="#333333" d="M368.65,472.22c11.66,0,16.54,6.07,16.54,17.34v6.18c0,8.34-2.86,13.55-9.22,15.61
			c6.79,2.06,9.33,7.69,9.33,15.82v11.81c0,3.36,0.11,6.5,1.48,9.1h-8.38c-0.95-2.17-1.38-4.12-1.38-9.21v-11.92
			c0-8.56-3.92-11.27-10.81-11.27h-5.83v32.4h-8.27v-75.86H368.65z M366.53,507.98c6.57,0,10.5-2.17,10.5-10.4v-7.26
			c0-6.83-2.44-10.4-8.59-10.4h-8.06v28.07H366.53z"/>
		<path fill="#333333" d="M455.59,548.08v-68.16h-13.68v-7.69h35.62v7.69h-13.68v68.16H455.59z"/>
		<path fill="#333333" d="M561.5,547.97h-7.95l-12.3-60.36v60.47h-7.21v-75.86h11.56l12.19,60.58l11.77-60.58h11.56v75.86h-7.85v-61.01
			L561.5,547.97z"/>
		<path fill="#1bb76e" d="M670.6,532.8v15.28h-8.06V532.8h-23.96v-7.69l23.01-52.88h9.01v52.88h5.94v7.69H670.6z M646.22,525.1h16.33
			v-37.06L646.22,525.1z"/>
		<path fill="#333333" d="M744.61,548.08v-68.16h-13.68v-7.69h35.62v7.69h-13.68v68.16H744.61z"/>
		<path fill="#333333" d="M849.57,505.81v7.59h-18.13v26.98h22.26v7.69h-30.54v-75.86h30.54v7.69h-22.26v25.9H849.57z"/>
	</g>
	<g>
		<path fill="#333333" d="M452.4,264.08c0,2.53-0.14,5-0.41,7.44c-0.27,2.43-0.59,4.92-0.95,7.44l-9.74,55.19
			c-4.15,23.99-16.23,44.37-36.25,61.14c-19.84,16.77-41.66,25.16-65.47,25.16H87.97l18.94-110.65h227.8l5.68-30.84H198.63
			c-21.28,0-38.69-6.76-52.22-20.29c-13.53-13.7-20.29-30.75-20.29-51.13c0-2.52,0.09-5,0.27-7.44c0.18-2.43,0.45-4.91,0.81-7.44
			h252.42c21.46,0,38.96,6.76,52.49,20.29S452.4,243.52,452.4,264.08z"/>
		<path fill="#333333" d="M471.34,161.82H132.88l4.33-24.62c3.96-23.81,15.87-44.1,35.71-60.87c20.02-16.77,41.93-25.16,65.74-25.16
			h252.42L471.34,161.82z"/>
		<polygon fill="#333333" points="856.6,420.46 745.94,420.46 773,265.98 656.66,420.46 594.44,265.98 567.38,420.46 457.27,420.46
			496.5,192.66 896.64,192.66 		"/>
		<polygon fill="#333333" points="502.18,161.82 521.66,51.16 632.58,51.16 676.95,161.82 		"/>
		<polygon fill="#1bb76e" points="902.32,161.82 727.54,161.82 811.14,51.16 922.07,51.16 		"/>
	</g>
</g>
</svg>
